<svg width="1099" height="1022" viewBox="0 0 1099 1022" fill="none" xmlns="http://www.w3.org/2000/svg">
<circle cx="533" cy="543" r="479" fill="black"/>
<g filter="url(#filter0_d_10_180)">
<path d="M846 556C846 728.865 705.865 869 533 869C360.135 869 220 728.865 220 556C220 383.135 360.135 243 533 243C705.865 243 846 383.135 846 556Z" fill="white"/>
</g>
<path d="M819 553.5C819 514.563 811.447 476.007 796.773 440.034C782.098 404.061 760.59 371.375 733.475 343.843C706.36 316.31 674.171 294.47 638.744 279.57C603.316 264.669 565.346 257 527 257C488.654 257 450.683 264.669 415.256 279.57C379.829 294.47 347.64 316.31 320.525 343.843C293.41 371.375 271.902 404.061 257.227 440.034C242.553 476.007 235 514.563 235 553.5L527 553.5H819Z" fill="black"/>
<path d="M310.065 770.935C367.732 828.603 445.946 861 527.5 861C609.054 861 687.268 828.603 744.935 770.935L527.5 553.5L310.065 770.935Z" fill="black"/>
<defs>
<filter id="filter0_d_10_180" x="216" y="243" width="634" height="634" filterUnits="userSpaceOnUse" color-interpolation-filters="sRGB">
<feFlood flood-opacity="0" result="BackgroundImageFix"/>
<feColorMatrix in="SourceAlpha" type="matrix" values="0 0 0 0 0 0 0 0 0 0 0 0 0 0 0 0 0 0 127 0" result="hardAlpha"/>
<feOffset dy="4"/>
<feGaussianBlur stdDeviation="2"/>
<feComposite in2="hardAlpha" operator="out"/>
<feColorMatrix type="matrix" values="0 0 0 0 0 0 0 0 0 0 0 0 0 0 0 0 0 0 0.25 0"/>
<feBlend mode="normal" in2="BackgroundImageFix" result="effect1_dropShadow_10_180"/>
<feBlend mode="normal" in="SourceGraphic" in2="effect1_dropShadow_10_180" result="shape"/>
</filter>
</defs>
</svg>
