<svg width="958" height="958" viewBox="0 0 958 958" fill="none" xmlns="http://www.w3.org/2000/svg">
<circle cx="479" cy="479" r="479" fill="#808080"/>
<g filter="url(#filter0_d_10_179)">
<path d="M792 492C792 664.865 651.865 805 479 805C306.135 805 166 664.865 166 492C166 319.135 306.135 179 479 179C651.865 179 792 319.135 792 492Z" fill="white"/>
</g>
<path d="M765 489.5C765 450.563 757.447 412.007 742.773 376.034C728.098 340.061 706.59 307.375 679.475 279.843C652.36 252.31 620.171 230.47 584.744 215.57C549.316 200.669 511.346 193 473 193C434.654 193 396.683 200.669 361.256 215.57C325.829 230.47 293.64 252.31 266.525 279.843C239.41 307.375 217.902 340.061 203.227 376.034C188.553 412.007 181 450.563 181 489.5L473 489.5H765Z" fill="#4295D0"/>
<path d="M256.065 706.935C313.732 764.603 391.946 797 473.5 797C555.054 797 633.268 764.603 690.935 706.935L473.5 489.5L256.065 706.935Z" fill="#4295D0"/>
<defs>
<filter id="filter0_d_10_179" x="162" y="179" width="634" height="634" filterUnits="userSpaceOnUse" color-interpolation-filters="sRGB">
<feFlood flood-opacity="0" result="BackgroundImageFix"/>
<feColorMatrix in="SourceAlpha" type="matrix" values="0 0 0 0 0 0 0 0 0 0 0 0 0 0 0 0 0 0 127 0" result="hardAlpha"/>
<feOffset dy="4"/>
<feGaussianBlur stdDeviation="2"/>
<feComposite in2="hardAlpha" operator="out"/>
<feColorMatrix type="matrix" values="0 0 0 0 0 0 0 0 0 0 0 0 0 0 0 0 0 0 0.25 0"/>
<feBlend mode="normal" in2="BackgroundImageFix" result="effect1_dropShadow_10_179"/>
<feBlend mode="normal" in="SourceGraphic" in2="effect1_dropShadow_10_179" result="shape"/>
</filter>
</defs>
</svg>
