<svg viewBox="0 0 966 966" fill="none" xmlns="http://www.w3.org/2000/svg"><g filter="url(#a)"><circle cx="483" cy="479" r="479" fill="gray"/><g filter="url(#b)"><path d="M796 492c0 172.865-140.135 313-313 313S170 664.865 170 492s140.135-313 313-313 313 140.135 313 313Z" fill="#fff"/></g><path d="M769 489.5c0-38.937-7.553-77.493-22.227-113.466-14.675-35.973-36.183-68.659-63.298-96.191-27.115-27.533-59.304-49.373-94.731-64.273C553.316 200.669 515.346 193 477 193c-38.346 0-76.317 7.669-111.744 22.57-35.427 14.9-67.616 36.74-94.731 64.273-27.115 27.532-48.623 60.218-63.298 96.191C192.553 412.007 185 450.563 185 489.5h584ZM260.065 706.935a307.497 307.497 0 0 0 434.87 0L477.5 489.5 260.065 706.935Z" fill="#4295D0"/></g><mask id="c" style="mask-type:alpha" maskUnits="userSpaceOnUse" x="188" y="25" width="249" height="188"><ellipse cx="312.5" cy="119" rx="124.5" ry="94" fill="#000"/></mask><g mask="url(#c)"><g filter="url(#d)"><ellipse cx="353" cy="435" rx="223" ry="278" fill="#D9D9D9"/></g><g filter="url(#e)"><ellipse cx="557.5" cy="167" rx="197.5" ry="65" fill="#195286"/></g><g filter="url(#f)"><path d="M379.559 315.5c0 78.701-44.995 142.5-100.5 142.5-55.504 0-100.5-63.799-100.5-142.5S223.555 173 279.059 173c55.505 0 100.5 63.799 100.5 142.5Z" fill="#0F78B4"/></g></g><defs><filter id="a" x="0" y="0" width="966" height="966" filterUnits="userSpaceOnUse" color-interpolation-filters="sRGB"><feFlood flood-opacity="0" result="BackgroundImageFix"/><feColorMatrix in="SourceAlpha" values="0 0 0 0 0 0 0 0 0 0 0 0 0 0 0 0 0 0 127 0" result="hardAlpha"/><feOffset dy="4"/><feGaussianBlur stdDeviation="2"/><feComposite in2="hardAlpha" operator="out"/><feColorMatrix values="0 0 0 0 0 0 0 0 0 0 0 0 0 0 0 0 0 0 0.25 0"/><feBlend in2="BackgroundImageFix" result="effect1_dropShadow_11_198"/><feBlend in="SourceGraphic" in2="effect1_dropShadow_11_198" result="shape"/></filter><filter id="b" x="166" y="179" width="634" height="634" filterUnits="userSpaceOnUse" color-interpolation-filters="sRGB"><feFlood flood-opacity="0" result="BackgroundImageFix"/><feColorMatrix in="SourceAlpha" values="0 0 0 0 0 0 0 0 0 0 0 0 0 0 0 0 0 0 127 0" result="hardAlpha"/><feOffset dy="4"/><feGaussianBlur stdDeviation="2"/><feComposite in2="hardAlpha" operator="out"/><feColorMatrix values="0 0 0 0 0 0 0 0 0 0 0 0 0 0 0 0 0 0 0.25 0"/><feBlend in2="BackgroundImageFix" result="effect1_dropShadow_11_198"/><feBlend in="SourceGraphic" in2="effect1_dropShadow_11_198" result="shape"/></filter><filter id="d" x="126" y="157" width="454" height="564" filterUnits="userSpaceOnUse" color-interpolation-filters="sRGB"><feFlood flood-opacity="0" result="BackgroundImageFix"/><feColorMatrix in="SourceAlpha" values="0 0 0 0 0 0 0 0 0 0 0 0 0 0 0 0 0 0 127 0" result="hardAlpha"/><feOffset dy="4"/><feGaussianBlur stdDeviation="2"/><feComposite in2="hardAlpha" operator="out"/><feColorMatrix values="0 0 0 0 0 0 0 0 0 0 0 0 0 0 0 0 0 0 0.25 0"/><feBlend in2="BackgroundImageFix" result="effect1_dropShadow_11_198"/><feBlend in="SourceGraphic" in2="effect1_dropShadow_11_198" result="shape"/></filter><filter id="e" x="356" y="102" width="403" height="138" filterUnits="userSpaceOnUse" color-interpolation-filters="sRGB"><feFlood flood-opacity="0" result="BackgroundImageFix"/><feColorMatrix in="SourceAlpha" values="0 0 0 0 0 0 0 0 0 0 0 0 0 0 0 0 0 0 127 0" result="hardAlpha"/><feOffset dy="4"/><feGaussianBlur stdDeviation="2"/><feComposite in2="hardAlpha" operator="out"/><feColorMatrix values="0 0 0 0 0 0 0 0 0 0 0 0 0 0 0 0 0 0 0.25 0"/><feBlend in2="BackgroundImageFix" result="effect1_dropShadow_11_198"/><feBlend in="SourceGraphic" in2="effect1_dropShadow_11_198" result="shape"/></filter><filter id="f" x="174.559" y="173" width="209" height="293" filterUnits="userSpaceOnUse" color-interpolation-filters="sRGB"><feFlood flood-opacity="0" result="BackgroundImageFix"/><feColorMatrix in="SourceAlpha" values="0 0 0 0 0 0 0 0 0 0 0 0 0 0 0 0 0 0 127 0" result="hardAlpha"/><feOffset dy="4"/><feGaussianBlur stdDeviation="2"/><feComposite in2="hardAlpha" operator="out"/><feColorMatrix values="0 0 0 0 0 0 0 0 0 0 0 0 0 0 0 0 0 0 0.25 0"/><feBlend in2="BackgroundImageFix" result="effect1_dropShadow_11_198"/><feBlend in="SourceGraphic" in2="effect1_dropShadow_11_198" result="shape"/></filter></defs></svg>